<mxfile host="app.diagrams.net" modified="2024-03-11T10:13:42.807Z" agent="Mozilla/5.0 (Windows NT 10.0; Win64; x64) AppleWebKit/537.36 (KHTML, like Gecko) Chrome/122.0.0.0 Safari/537.36 Edg/122.0.0.0" etag="EBL6xWa6G7KAv6j-Qxjx" version="24.0.4" type="device">
  <diagram name="Page-1" id="uA9UaWxlDlIsP1pgWaFU">
    <mxGraphModel dx="2104" dy="687" grid="1" gridSize="10" guides="1" tooltips="1" connect="1" arrows="1" fold="1" page="1" pageScale="1" pageWidth="850" pageHeight="1100" math="0" shadow="0">
      <root>
        <mxCell id="0" />
        <mxCell id="1" parent="0" />
        <mxCell id="9MWjZrB16a_mNDR0kYxP-3" style="edgeStyle=orthogonalEdgeStyle;rounded=0;orthogonalLoop=1;jettySize=auto;html=1;exitX=0.5;exitY=1;exitDx=0;exitDy=0;entryX=0.5;entryY=0;entryDx=0;entryDy=0;" edge="1" parent="1" source="I1VDkAM80HxjSIb9_9jx-1" target="I1VDkAM80HxjSIb9_9jx-6">
          <mxGeometry relative="1" as="geometry" />
        </mxCell>
        <mxCell id="I1VDkAM80HxjSIb9_9jx-1" value="Battery Module" style="rounded=0;whiteSpace=wrap;html=1;" parent="1" vertex="1">
          <mxGeometry x="170" y="240" width="120" height="60" as="geometry" />
        </mxCell>
        <mxCell id="I1VDkAM80HxjSIb9_9jx-3" value="" style="edgeStyle=orthogonalEdgeStyle;rounded=0;orthogonalLoop=1;jettySize=auto;html=1;" parent="1" source="I1VDkAM80HxjSIb9_9jx-2" target="I1VDkAM80HxjSIb9_9jx-1" edge="1">
          <mxGeometry relative="1" as="geometry" />
        </mxCell>
        <mxCell id="I1VDkAM80HxjSIb9_9jx-2" value="Battery Module" style="rounded=0;whiteSpace=wrap;html=1;" parent="1" vertex="1">
          <mxGeometry x="170" y="160" width="120" height="60" as="geometry" />
        </mxCell>
        <mxCell id="I1VDkAM80HxjSIb9_9jx-9" value="" style="edgeStyle=orthogonalEdgeStyle;rounded=0;orthogonalLoop=1;jettySize=auto;html=1;" parent="1" source="I1VDkAM80HxjSIb9_9jx-6" target="I1VDkAM80HxjSIb9_9jx-8" edge="1">
          <mxGeometry relative="1" as="geometry" />
        </mxCell>
        <mxCell id="I1VDkAM80HxjSIb9_9jx-6" value="Battery Module" style="rounded=0;whiteSpace=wrap;html=1;" parent="1" vertex="1">
          <mxGeometry x="170" y="330" width="120" height="60" as="geometry" />
        </mxCell>
        <mxCell id="9MWjZrB16a_mNDR0kYxP-5" style="edgeStyle=orthogonalEdgeStyle;rounded=0;orthogonalLoop=1;jettySize=auto;html=1;exitX=0;exitY=0.5;exitDx=0;exitDy=0;" edge="1" parent="1" source="I1VDkAM80HxjSIb9_9jx-8">
          <mxGeometry relative="1" as="geometry">
            <mxPoint x="110" y="340" as="targetPoint" />
          </mxGeometry>
        </mxCell>
        <mxCell id="I1VDkAM80HxjSIb9_9jx-8" value="Battery Module" style="rounded=0;whiteSpace=wrap;html=1;" parent="1" vertex="1">
          <mxGeometry x="170" y="410" width="120" height="60" as="geometry" />
        </mxCell>
        <mxCell id="I1VDkAM80HxjSIb9_9jx-10" value="Precharge Resistor and 2 Contactors" style="rounded=0;whiteSpace=wrap;html=1;" parent="1" vertex="1">
          <mxGeometry x="370" y="260" width="120" height="60" as="geometry" />
        </mxCell>
        <mxCell id="I1VDkAM80HxjSIb9_9jx-11" value="" style="endArrow=classic;html=1;rounded=0;entryX=0.5;entryY=0;entryDx=0;entryDy=0;exitX=0.5;exitY=0;exitDx=0;exitDy=0;" parent="1" source="9MWjZrB16a_mNDR0kYxP-6" target="I1VDkAM80HxjSIb9_9jx-10" edge="1">
          <mxGeometry width="50" height="50" relative="1" as="geometry">
            <mxPoint x="410" y="450" as="sourcePoint" />
            <mxPoint x="460" y="400" as="targetPoint" />
            <Array as="points">
              <mxPoint x="180" y="80" />
              <mxPoint x="430" y="80" />
            </Array>
          </mxGeometry>
        </mxCell>
        <mxCell id="9MWjZrB16a_mNDR0kYxP-4" style="edgeStyle=orthogonalEdgeStyle;rounded=0;orthogonalLoop=1;jettySize=auto;html=1;exitX=0.5;exitY=0;exitDx=0;exitDy=0;entryX=0;entryY=0.5;entryDx=0;entryDy=0;" edge="1" parent="1" source="I1VDkAM80HxjSIb9_9jx-13" target="I1VDkAM80HxjSIb9_9jx-2">
          <mxGeometry relative="1" as="geometry" />
        </mxCell>
        <mxCell id="I1VDkAM80HxjSIb9_9jx-13" value="BMS Master" style="rounded=0;whiteSpace=wrap;html=1;" parent="1" vertex="1">
          <mxGeometry x="80" y="250" width="60" height="85" as="geometry" />
        </mxCell>
        <mxCell id="9MWjZrB16a_mNDR0kYxP-13" style="edgeStyle=orthogonalEdgeStyle;rounded=0;orthogonalLoop=1;jettySize=auto;html=1;exitX=0.75;exitY=0;exitDx=0;exitDy=0;entryX=0;entryY=0.5;entryDx=0;entryDy=0;" edge="1" parent="1">
          <mxGeometry relative="1" as="geometry">
            <mxPoint x="-29.999999999999773" y="477.52" as="sourcePoint" />
            <mxPoint x="80.00000000000023" y="300.02" as="targetPoint" />
            <Array as="points">
              <mxPoint x="-30" y="299.52" />
            </Array>
          </mxGeometry>
        </mxCell>
        <mxCell id="I1VDkAM80HxjSIb9_9jx-14" value="Electronics" style="rounded=0;whiteSpace=wrap;html=1;" parent="1" vertex="1">
          <mxGeometry x="-120" y="470" width="120" height="60" as="geometry" />
        </mxCell>
        <mxCell id="I1VDkAM80HxjSIb9_9jx-16" value="LV Battery 6s" style="rounded=0;whiteSpace=wrap;html=1;" parent="1" vertex="1">
          <mxGeometry x="-290" y="470" width="120" height="60" as="geometry" />
        </mxCell>
        <mxCell id="I1VDkAM80HxjSIb9_9jx-18" value="" style="endArrow=classic;html=1;rounded=0;entryX=0;entryY=0.5;entryDx=0;entryDy=0;exitX=1;exitY=0.5;exitDx=0;exitDy=0;" parent="1" source="I1VDkAM80HxjSIb9_9jx-16" target="I1VDkAM80HxjSIb9_9jx-14" edge="1">
          <mxGeometry width="50" height="50" relative="1" as="geometry">
            <mxPoint x="-190" y="500" as="sourcePoint" />
            <mxPoint x="460" y="420" as="targetPoint" />
            <Array as="points" />
          </mxGeometry>
        </mxCell>
        <mxCell id="ZxciiD-_5-U2KcQ3YICQ-10" value="" style="edgeStyle=orthogonalEdgeStyle;rounded=0;orthogonalLoop=1;jettySize=auto;html=1;" parent="1" source="I1VDkAM80HxjSIb9_9jx-20" target="ZxciiD-_5-U2KcQ3YICQ-9" edge="1">
          <mxGeometry relative="1" as="geometry" />
        </mxCell>
        <mxCell id="I1VDkAM80HxjSIb9_9jx-20" value="Inverter" style="rounded=0;whiteSpace=wrap;html=1;" parent="1" vertex="1">
          <mxGeometry x="370" y="410" width="120" height="60" as="geometry" />
        </mxCell>
        <mxCell id="I1VDkAM80HxjSIb9_9jx-22" value="" style="endArrow=classic;html=1;rounded=0;entryX=0.5;entryY=0;entryDx=0;entryDy=0;exitX=0.5;exitY=1;exitDx=0;exitDy=0;" parent="1" source="I1VDkAM80HxjSIb9_9jx-10" target="I1VDkAM80HxjSIb9_9jx-20" edge="1">
          <mxGeometry width="50" height="50" relative="1" as="geometry">
            <mxPoint x="350" y="450" as="sourcePoint" />
            <mxPoint x="400" y="400" as="targetPoint" />
          </mxGeometry>
        </mxCell>
        <mxCell id="I1VDkAM80HxjSIb9_9jx-23" value="Precharge Resistor and 2 Contactors" style="rounded=0;whiteSpace=wrap;html=1;" parent="1" vertex="1">
          <mxGeometry x="690" y="260" width="120" height="60" as="geometry" />
        </mxCell>
        <mxCell id="I1VDkAM80HxjSIb9_9jx-33" value="" style="edgeStyle=orthogonalEdgeStyle;rounded=0;orthogonalLoop=1;jettySize=auto;html=1;" parent="1" source="I1VDkAM80HxjSIb9_9jx-24" target="I1VDkAM80HxjSIb9_9jx-32" edge="1">
          <mxGeometry relative="1" as="geometry" />
        </mxCell>
        <mxCell id="I1VDkAM80HxjSIb9_9jx-24" value="Levitation Power Unit&lt;br&gt;* 8" style="rounded=0;whiteSpace=wrap;html=1;" parent="1" vertex="1">
          <mxGeometry x="690" y="410" width="120" height="60" as="geometry" />
        </mxCell>
        <mxCell id="I1VDkAM80HxjSIb9_9jx-25" value="" style="endArrow=classic;html=1;rounded=0;entryX=0.5;entryY=0;entryDx=0;entryDy=0;exitX=0.5;exitY=1;exitDx=0;exitDy=0;" parent="1" source="I1VDkAM80HxjSIb9_9jx-23" target="I1VDkAM80HxjSIb9_9jx-24" edge="1">
          <mxGeometry width="50" height="50" relative="1" as="geometry">
            <mxPoint x="670" y="450" as="sourcePoint" />
            <mxPoint x="720" y="400" as="targetPoint" />
          </mxGeometry>
        </mxCell>
        <mxCell id="I1VDkAM80HxjSIb9_9jx-35" value="" style="edgeStyle=orthogonalEdgeStyle;rounded=0;orthogonalLoop=1;jettySize=auto;html=1;" parent="1" source="I1VDkAM80HxjSIb9_9jx-27" target="I1VDkAM80HxjSIb9_9jx-34" edge="1">
          <mxGeometry relative="1" as="geometry" />
        </mxCell>
        <mxCell id="I1VDkAM80HxjSIb9_9jx-27" value="Inverter" style="rounded=0;whiteSpace=wrap;html=1;" parent="1" vertex="1">
          <mxGeometry x="520" y="410" width="120" height="60" as="geometry" />
        </mxCell>
        <mxCell id="I1VDkAM80HxjSIb9_9jx-28" value="" style="endArrow=classic;html=1;rounded=0;entryX=0.5;entryY=0;entryDx=0;entryDy=0;exitX=1;exitY=0.5;exitDx=0;exitDy=0;" parent="1" source="I1VDkAM80HxjSIb9_9jx-10" target="I1VDkAM80HxjSIb9_9jx-27" edge="1">
          <mxGeometry width="50" height="50" relative="1" as="geometry">
            <mxPoint x="580" y="320" as="sourcePoint" />
            <mxPoint x="550" y="400" as="targetPoint" />
            <Array as="points">
              <mxPoint x="580" y="290" />
            </Array>
          </mxGeometry>
        </mxCell>
        <mxCell id="I1VDkAM80HxjSIb9_9jx-30" value="" style="endArrow=classic;html=1;rounded=0;entryX=0.5;entryY=0;entryDx=0;entryDy=0;" parent="1" target="I1VDkAM80HxjSIb9_9jx-23" edge="1">
          <mxGeometry width="50" height="50" relative="1" as="geometry">
            <mxPoint x="430" y="80" as="sourcePoint" />
            <mxPoint x="400" y="390" as="targetPoint" />
            <Array as="points">
              <mxPoint x="750" y="80" />
            </Array>
          </mxGeometry>
        </mxCell>
        <mxCell id="I1VDkAM80HxjSIb9_9jx-31" value="" style="endArrow=classic;html=1;rounded=0;entryX=0;entryY=0.5;entryDx=0;entryDy=0;exitX=0.5;exitY=1;exitDx=0;exitDy=0;" parent="1" target="I1VDkAM80HxjSIb9_9jx-24" edge="1" source="9MWjZrB16a_mNDR0kYxP-8">
          <mxGeometry width="50" height="50" relative="1" as="geometry">
            <mxPoint x="180" y="670" as="sourcePoint" />
            <mxPoint x="400" y="430" as="targetPoint" />
            <Array as="points">
              <mxPoint x="180" y="670" />
              <mxPoint x="660" y="670" />
              <mxPoint x="660" y="440" />
            </Array>
          </mxGeometry>
        </mxCell>
        <mxCell id="I1VDkAM80HxjSIb9_9jx-32" value="EMS*8" style="ellipse;whiteSpace=wrap;html=1;rounded=0;" parent="1" vertex="1">
          <mxGeometry x="710" y="540" width="80" height="80" as="geometry" />
        </mxCell>
        <mxCell id="I1VDkAM80HxjSIb9_9jx-34" value="Motor" style="ellipse;whiteSpace=wrap;html=1;rounded=0;" parent="1" vertex="1">
          <mxGeometry x="540" y="540" width="80" height="80" as="geometry" />
        </mxCell>
        <mxCell id="I1VDkAM80HxjSIb9_9jx-37" value="" style="edgeStyle=orthogonalEdgeStyle;rounded=0;orthogonalLoop=1;jettySize=auto;html=1;" parent="1" source="I1VDkAM80HxjSIb9_9jx-36" target="I1VDkAM80HxjSIb9_9jx-14" edge="1">
          <mxGeometry relative="1" as="geometry" />
        </mxCell>
        <mxCell id="I1VDkAM80HxjSIb9_9jx-36" value="IMD" style="ellipse;whiteSpace=wrap;html=1;aspect=fixed;" parent="1" vertex="1">
          <mxGeometry x="-100" y="130" width="80" height="80" as="geometry" />
        </mxCell>
        <mxCell id="I1VDkAM80HxjSIb9_9jx-40" value="Chassis" style="ellipse;whiteSpace=wrap;html=1;aspect=fixed;" parent="1" vertex="1">
          <mxGeometry x="-270" y="130" width="80" height="80" as="geometry" />
        </mxCell>
        <mxCell id="I1VDkAM80HxjSIb9_9jx-41" value="" style="endArrow=classic;html=1;rounded=0;exitX=0;exitY=0.5;exitDx=0;exitDy=0;entryX=1;entryY=0.5;entryDx=0;entryDy=0;" parent="1" source="I1VDkAM80HxjSIb9_9jx-36" target="I1VDkAM80HxjSIb9_9jx-40" edge="1">
          <mxGeometry width="50" height="50" relative="1" as="geometry">
            <mxPoint x="130" y="360" as="sourcePoint" />
            <mxPoint x="180" y="310" as="targetPoint" />
          </mxGeometry>
        </mxCell>
        <mxCell id="ZxciiD-_5-U2KcQ3YICQ-3" style="edgeStyle=orthogonalEdgeStyle;rounded=0;orthogonalLoop=1;jettySize=auto;html=1;exitX=0;exitY=1;exitDx=0;exitDy=0;entryX=0.75;entryY=0;entryDx=0;entryDy=0;" parent="1" source="I1VDkAM80HxjSIb9_9jx-43" target="I1VDkAM80HxjSIb9_9jx-24" edge="1">
          <mxGeometry relative="1" as="geometry" />
        </mxCell>
        <mxCell id="I1VDkAM80HxjSIb9_9jx-43" value="Electronics" style="rounded=0;whiteSpace=wrap;html=1;" parent="1" vertex="1">
          <mxGeometry x="800" y="330" width="60" height="60" as="geometry" />
        </mxCell>
        <mxCell id="I1VDkAM80HxjSIb9_9jx-46" value="Electronics&amp;nbsp;" style="ellipse;whiteSpace=wrap;html=1;aspect=fixed;" parent="1" vertex="1">
          <mxGeometry x="490" y="90" width="80" height="80" as="geometry" />
        </mxCell>
        <mxCell id="I1VDkAM80HxjSIb9_9jx-47" value="Estop and inertial switch" style="rounded=0;whiteSpace=wrap;html=1;" parent="1" vertex="1">
          <mxGeometry x="480" y="180" width="120" height="60" as="geometry" />
        </mxCell>
        <mxCell id="I1VDkAM80HxjSIb9_9jx-48" value="" style="endArrow=classic;html=1;rounded=0;exitX=1;exitY=0.5;exitDx=0;exitDy=0;entryX=0.5;entryY=0;entryDx=0;entryDy=0;" parent="1" source="I1VDkAM80HxjSIb9_9jx-46" target="I1VDkAM80HxjSIb9_9jx-47" edge="1">
          <mxGeometry width="50" height="50" relative="1" as="geometry">
            <mxPoint x="440" y="370" as="sourcePoint" />
            <mxPoint x="490" y="320" as="targetPoint" />
            <Array as="points">
              <mxPoint x="610" y="130" />
              <mxPoint x="610" y="160" />
            </Array>
          </mxGeometry>
        </mxCell>
        <mxCell id="I1VDkAM80HxjSIb9_9jx-50" value="" style="endArrow=classic;html=1;rounded=0;exitX=0;exitY=0.5;exitDx=0;exitDy=0;entryX=0.75;entryY=0;entryDx=0;entryDy=0;" parent="1" source="I1VDkAM80HxjSIb9_9jx-47" target="I1VDkAM80HxjSIb9_9jx-10" edge="1">
          <mxGeometry width="50" height="50" relative="1" as="geometry">
            <mxPoint x="440" y="370" as="sourcePoint" />
            <mxPoint x="490" y="320" as="targetPoint" />
            <Array as="points">
              <mxPoint x="460" y="210" />
            </Array>
          </mxGeometry>
        </mxCell>
        <mxCell id="I1VDkAM80HxjSIb9_9jx-52" value="" style="endArrow=classic;html=1;rounded=0;exitX=1;exitY=0.5;exitDx=0;exitDy=0;entryX=0.25;entryY=0;entryDx=0;entryDy=0;" parent="1" source="I1VDkAM80HxjSIb9_9jx-47" target="I1VDkAM80HxjSIb9_9jx-23" edge="1">
          <mxGeometry width="50" height="50" relative="1" as="geometry">
            <mxPoint x="440" y="370" as="sourcePoint" />
            <mxPoint x="490" y="320" as="targetPoint" />
            <Array as="points">
              <mxPoint x="720" y="210" />
            </Array>
          </mxGeometry>
        </mxCell>
        <mxCell id="ZxciiD-_5-U2KcQ3YICQ-5" style="edgeStyle=orthogonalEdgeStyle;rounded=0;orthogonalLoop=1;jettySize=auto;html=1;exitX=0;exitY=1;exitDx=0;exitDy=0;entryX=0.831;entryY=-0.029;entryDx=0;entryDy=0;entryPerimeter=0;" parent="1" source="ZxciiD-_5-U2KcQ3YICQ-4" target="I1VDkAM80HxjSIb9_9jx-27" edge="1">
          <mxGeometry relative="1" as="geometry" />
        </mxCell>
        <mxCell id="ZxciiD-_5-U2KcQ3YICQ-4" value="Electronics" style="rounded=0;whiteSpace=wrap;html=1;" parent="1" vertex="1">
          <mxGeometry x="630" y="330" width="60" height="60" as="geometry" />
        </mxCell>
        <mxCell id="ZxciiD-_5-U2KcQ3YICQ-7" style="edgeStyle=orthogonalEdgeStyle;rounded=0;orthogonalLoop=1;jettySize=auto;html=1;exitX=0;exitY=1;exitDx=0;exitDy=0;entryX=0.871;entryY=0.013;entryDx=0;entryDy=0;entryPerimeter=0;" parent="1" source="ZxciiD-_5-U2KcQ3YICQ-6" target="I1VDkAM80HxjSIb9_9jx-20" edge="1">
          <mxGeometry relative="1" as="geometry" />
        </mxCell>
        <mxCell id="ZxciiD-_5-U2KcQ3YICQ-6" value="Electronics" style="rounded=0;whiteSpace=wrap;html=1;" parent="1" vertex="1">
          <mxGeometry x="490" y="330" width="60" height="60" as="geometry" />
        </mxCell>
        <mxCell id="ZxciiD-_5-U2KcQ3YICQ-8" value="" style="endArrow=classic;html=1;rounded=0;entryX=0;entryY=0.5;entryDx=0;entryDy=0;" parent="1" target="I1VDkAM80HxjSIb9_9jx-27" edge="1">
          <mxGeometry width="50" height="50" relative="1" as="geometry">
            <mxPoint x="500" y="670" as="sourcePoint" />
            <mxPoint x="570" y="460" as="targetPoint" />
            <Array as="points">
              <mxPoint x="500" y="440" />
            </Array>
          </mxGeometry>
        </mxCell>
        <mxCell id="ZxciiD-_5-U2KcQ3YICQ-9" value="Motor" style="ellipse;whiteSpace=wrap;html=1;rounded=0;" parent="1" vertex="1">
          <mxGeometry x="385" y="540" width="80" height="80" as="geometry" />
        </mxCell>
        <mxCell id="9MWjZrB16a_mNDR0kYxP-9" value="" style="edgeStyle=orthogonalEdgeStyle;rounded=0;orthogonalLoop=1;jettySize=auto;html=1;" edge="1" parent="1" source="9MWjZrB16a_mNDR0kYxP-6" target="9MWjZrB16a_mNDR0kYxP-8">
          <mxGeometry relative="1" as="geometry" />
        </mxCell>
        <mxCell id="9MWjZrB16a_mNDR0kYxP-11" style="edgeStyle=orthogonalEdgeStyle;rounded=0;orthogonalLoop=1;jettySize=auto;html=1;exitX=0.5;exitY=0;exitDx=0;exitDy=0;entryX=0.5;entryY=0;entryDx=0;entryDy=0;" edge="1" parent="1" source="9MWjZrB16a_mNDR0kYxP-6" target="I1VDkAM80HxjSIb9_9jx-36">
          <mxGeometry relative="1" as="geometry">
            <Array as="points">
              <mxPoint x="180" y="80" />
              <mxPoint x="-60" y="80" />
            </Array>
          </mxGeometry>
        </mxCell>
        <mxCell id="9MWjZrB16a_mNDR0kYxP-12" style="edgeStyle=orthogonalEdgeStyle;rounded=0;orthogonalLoop=1;jettySize=auto;html=1;entryX=1;entryY=0.5;entryDx=0;entryDy=0;exitX=0.5;exitY=1;exitDx=0;exitDy=0;" edge="1" parent="1" source="9MWjZrB16a_mNDR0kYxP-6" target="I1VDkAM80HxjSIb9_9jx-36">
          <mxGeometry relative="1" as="geometry">
            <Array as="points">
              <mxPoint x="180" y="530" />
              <mxPoint x="20" y="530" />
              <mxPoint x="20" y="170" />
            </Array>
          </mxGeometry>
        </mxCell>
        <mxCell id="9MWjZrB16a_mNDR0kYxP-6" value="" style="swimlane;startSize=0;" vertex="1" parent="1">
          <mxGeometry x="50" y="140" width="260" height="350" as="geometry" />
        </mxCell>
        <mxCell id="9MWjZrB16a_mNDR0kYxP-7" value="High Voltage Battery&amp;nbsp;" style="text;html=1;align=center;verticalAlign=middle;whiteSpace=wrap;rounded=0;" vertex="1" parent="9MWjZrB16a_mNDR0kYxP-6">
          <mxGeometry y="10" width="60" height="30" as="geometry" />
        </mxCell>
        <mxCell id="9MWjZrB16a_mNDR0kYxP-8" value="MSD" style="ellipse;whiteSpace=wrap;html=1;aspect=fixed;" vertex="1" parent="1">
          <mxGeometry x="140" y="560" width="80" height="80" as="geometry" />
        </mxCell>
      </root>
    </mxGraphModel>
  </diagram>
</mxfile>
